<svg xmlns="http://www.w3.org/2000/svg" width="136.539" height="50.271" viewBox="0 0 136.539 50.271">
  <g id="Group_127" data-name="Group 127" transform="translate(-36 -31)">
    <g id="Group_74" data-name="Group 74" transform="translate(-207.961 -0.364)">
      <g id="Group_73" data-name="Group 73" transform="translate(-865 255)">
        <g id="Group_50" data-name="Group 50" transform="translate(1108.961 -223.636)">
          <path id="Path_99" data-name="Path 99" d="M370.474,92.732l2.8-6.194a.5.5,0,0,1,.958.15l.758,6.646-1.619-2.294a.5.5,0,0,0-.731-.1Z" transform="translate(-354.045 -86.242)" fill="#f18c2b"/>
          <g id="Group_49" data-name="Group 49" transform="translate(0 5.475)">
            <path id="Path_100" data-name="Path 100" d="M297.606,216.518a41.676,41.676,0,0,1-2.352-11.791.862.862,0,0,0-1.175-.775l-14.086,5.589a.86.86,0,0,0,0,1.6l16.483,6.456A.857.857,0,0,0,297.606,216.518Z" transform="translate(-279.45 -188.131)" fill="#f18c2b"/>
            <path id="Path_101" data-name="Path 101" d="M407.574,140.756a.547.547,0,0,0,.031-1.012c-3.444-1.533-13.325-5.686-17.015-4.61,1.924-1.106,7.279-.14,12.038,1.064a.546.546,0,0,0,.34-1.035c-5.117-2.1-11.113-4.313-13.128-4.061-3.751.469-8.533,2.063-12-2.157-2.087-2.538-2-7.892-1.6-11.756a.546.546,0,0,0-1.067-.217c-1.3,4.486-2.357,12.518.842,24.069,1.71,6.175,3.676,9.822,5.112,11.865a.546.546,0,0,0,.971-.472c-.488-1.59-.776-3.357.153-3.8,1.374-.651,2.15,5.6,4.2,11.769a.549.549,0,0,0,1.062-.274c-2.172-11.639-.469-11.651-.469-11.651Z" transform="translate(-356.852 -116.578)" fill="#f18c2b"/>
            <ellipse id="Ellipse_28" data-name="Ellipse 28" cx="3.985" cy="3.985" rx="3.985" ry="3.985" transform="translate(23.012 5.502)" fill="#f18c2b"/>
            <path id="Path_102" data-name="Path 102" d="M339.644,284.8a30.1,30.1,0,0,1-5.064-6.322,1.608,1.608,0,0,0-.966-.787,87.59,87.59,0,0,1-8.489-3.176,1.644,1.644,0,0,0-2.323,1.5v6.638a1.618,1.618,0,0,0,.741,1.376c1.458.923,6.313,3.111,14.849,3.574A1.647,1.647,0,0,0,339.644,284.8Z" transform="translate(-314.977 -245.887)" fill="#0a293e"/>
            <path id="Path_103" data-name="Path 103" d="M454.732,288.1l-.016-5.463a1.641,1.641,0,0,1,1.087-1.553l10.169-4.017a1.641,1.641,0,0,1,2.195,1.544l-.016,6.378a1.644,1.644,0,0,1-.744,1.376,19.623,19.623,0,0,1-10.993,3.372A1.66,1.66,0,0,1,454.732,288.1Z" transform="translate(-423.082 -248.016)" fill="#0a293e"/>
            <path id="Path_104" data-name="Path 104" d="M286.146,243.449l.062,5.6a1.9,1.9,0,0,0-1.107,2c.123,1.538,1.107-.123,1.23,3.352a9.435,9.435,0,0,1-1.446,5.6,2.036,2.036,0,0,0,2.03.83c1.507-.123,1.845-.707,1.845-.707a9.057,9.057,0,0,1-1.507-5.751c.123-3.414.861-1.507,1.169-3.291a1.645,1.645,0,0,0-1.138-2.091v-5.536" transform="translate(-283.904 -220.55)" fill="#f18c2b"/>
          </g>
        </g>
        <text id="Droob_Uni" data-name="Droob Uni" transform="translate(1169.5 -194.794)" fill="#0a293e" font-size="16" font-family="SegoeUI, Segoe UI"><tspan x="0" y="0">Droob Uni</tspan></text>
        <text id="دروب_جامعية" data-name="دروب جامعية" transform="translate(1169.5 -177.364)" fill="#0a293e" font-size="14" font-family="SegoeUI, Segoe UI"><tspan x="0" y="0">دروب جامعية</tspan></text>
      </g>
    </g>
  </g>
</svg>
